<svg id="svg" version="1.1" xmlns="http://www.w3.org/2000/svg" xmlns:xlink="http://www.w3.org/1999/xlink" width="400" height="400" viewBox="0, 0, 400,400"><g id="svgg"><path id="path0" d="M181.728 0.373 C 181.728 0.680,181.286 0.746,179.242 0.746 C 177.750 0.746,176.756 0.845,176.756 0.994 C 176.756 1.139,175.927 1.243,174.767 1.243 C 173.607 1.243,172.778 1.347,172.778 1.492 C 172.778 1.630,172.115 1.740,171.287 1.740 C 170.377 1.740,169.795 1.846,169.795 2.011 C 169.795 2.188,170.160 2.227,170.851 2.124 C 175.544 1.429,178.853 1.034,181.529 0.851 C 184.079 0.677,185.250 0.000,183.001 0.000 C 182.035 0.000,181.728 0.090,181.728 0.373 M215.289 0.362 C 215.631 0.552,216.973 0.778,218.272 0.865 C 219.571 0.952,220.942 1.082,221.318 1.153 C 221.721 1.229,222.001 1.173,222.001 1.014 C 222.001 0.848,221.341 0.746,220.261 0.746 C 218.880 0.746,218.521 0.669,218.521 0.373 C 218.521 0.073,218.145 0.002,216.594 0.009 C 214.816 0.017,214.715 0.044,215.289 0.362 M224.612 1.513 C 228.403 2.040,229.459 2.134,229.459 1.944 C 229.459 1.832,228.900 1.740,228.216 1.740 C 227.533 1.740,226.973 1.628,226.973 1.492 C 226.973 1.345,226.186 1.256,225.047 1.275 L 223.120 1.306 224.612 1.513 M166.812 2.495 C 166.812 2.660,167.276 2.692,168.117 2.585 C 169.880 2.360,169.917 2.237,168.220 2.237 C 167.416 2.237,166.812 2.348,166.812 2.495 M230.827 2.365 C 230.963 2.414,232.530 2.689,234.307 2.977 C 236.085 3.264,237.735 3.541,237.974 3.591 C 238.213 3.641,238.409 3.581,238.409 3.457 C 238.409 3.333,237.961 3.232,237.415 3.232 C 236.868 3.232,236.420 3.120,236.420 2.983 C 236.420 2.845,235.757 2.735,234.929 2.735 C 234.100 2.735,233.437 2.624,233.437 2.486 C 233.437 2.347,232.808 2.246,232.007 2.257 C 231.221 2.268,230.690 2.316,230.827 2.365 M163.828 2.998 C 163.828 3.172,164.235 3.203,165.009 3.091 C 166.615 2.858,166.651 2.735,165.113 2.735 C 164.373 2.735,163.828 2.846,163.828 2.998 M160.845 3.480 C 160.845 3.617,160.286 3.729,159.602 3.729 C 158.919 3.729,158.359 3.841,158.359 3.978 C 158.359 4.114,157.912 4.226,157.365 4.226 C 156.818 4.226,156.370 4.338,156.370 4.475 C 156.370 4.791,156.753 4.787,157.929 4.460 C 158.445 4.317,159.955 3.993,161.285 3.741 C 163.686 3.284,163.693 3.281,162.275 3.256 C 161.471 3.243,160.845 3.341,160.845 3.480 M239.175 3.818 C 239.455 4.057,240.895 4.186,240.895 3.971 C 240.895 3.838,240.485 3.729,239.983 3.729 C 239.482 3.729,239.119 3.769,239.175 3.818 M241.765 4.359 C 243.304 4.937,249.845 6.238,249.845 5.966 C 249.845 5.830,249.509 5.718,249.099 5.718 C 248.689 5.718,248.353 5.606,248.353 5.469 C 248.353 5.333,247.794 5.221,247.110 5.221 C 246.426 5.221,245.867 5.109,245.867 4.972 C 245.867 4.835,245.420 4.723,244.873 4.723 C 244.326 4.723,243.878 4.612,243.878 4.475 C 243.878 4.338,243.347 4.235,242.697 4.246 C 242.048 4.257,241.628 4.307,241.765 4.359 M153.884 4.972 C 153.884 5.109,153.437 5.221,152.890 5.221 C 152.343 5.221,151.896 5.333,151.896 5.469 C 151.896 5.606,151.448 5.718,150.901 5.718 C 150.354 5.718,149.907 5.830,149.907 5.966 C 149.907 6.103,149.459 6.215,148.912 6.215 C 148.365 6.215,147.918 6.327,147.918 6.464 C 147.918 6.600,147.470 6.712,146.924 6.712 C 146.377 6.712,145.929 6.824,145.929 6.961 C 145.929 7.098,145.594 7.209,145.183 7.209 C 144.773 7.209,144.438 7.321,144.438 7.458 C 144.438 7.595,143.990 7.707,143.443 7.707 C 142.896 7.707,142.449 7.819,142.449 7.955 C 142.449 8.092,142.113 8.204,141.703 8.204 C 141.293 8.204,140.957 8.316,140.957 8.452 C 140.957 8.589,140.622 8.701,140.211 8.701 C 139.801 8.701,139.466 8.813,139.466 8.950 C 139.466 9.086,139.130 9.198,138.720 9.198 C 138.310 9.198,137.974 9.310,137.974 9.447 C 137.974 9.584,137.526 9.695,136.979 9.695 C 136.433 9.695,135.985 9.807,135.985 9.944 C 135.985 10.081,135.649 10.193,135.239 10.193 C 134.829 10.193,134.493 10.305,134.493 10.441 C 134.493 10.578,134.270 10.690,133.996 10.690 C 133.723 10.690,133.499 10.802,133.499 10.938 C 133.499 11.075,133.163 11.187,132.753 11.187 C 132.343 11.187,132.007 11.299,132.007 11.436 C 132.007 11.572,131.672 11.684,131.262 11.684 C 130.851 11.684,130.516 11.796,130.516 11.933 C 130.516 12.070,130.180 12.181,129.770 12.181 C 129.360 12.181,129.024 12.293,129.024 12.430 C 129.024 12.567,128.800 12.679,128.527 12.679 C 128.254 12.679,128.030 12.791,128.030 12.927 C 128.030 13.064,127.694 13.176,127.284 13.176 C 126.874 13.176,126.538 13.288,126.538 13.424 C 126.538 13.561,126.314 13.673,126.041 13.673 C 125.768 13.673,125.544 13.785,125.544 13.922 C 125.544 14.058,125.208 14.170,124.798 14.170 C 124.388 14.170,124.052 14.282,124.052 14.419 C 124.052 14.556,123.828 14.667,123.555 14.667 C 123.282 14.667,123.058 14.779,123.058 14.916 C 123.058 15.053,122.722 15.165,122.312 15.165 C 121.902 15.165,121.566 15.277,121.566 15.413 C 121.566 15.550,121.342 15.662,121.069 15.662 C 120.796 15.662,120.572 15.774,120.572 15.911 C 120.572 16.047,120.348 16.159,120.075 16.159 C 119.801 16.159,119.577 16.271,119.577 16.408 C 119.577 16.544,119.242 16.656,118.832 16.656 C 118.421 16.656,118.086 16.768,118.086 16.905 C 118.086 17.042,117.862 17.154,117.589 17.154 C 117.315 17.154,117.091 17.265,117.091 17.402 C 117.091 17.539,116.868 17.651,116.594 17.651 C 116.321 17.651,116.097 17.763,116.097 17.899 C 116.097 18.036,115.873 18.148,115.600 18.148 C 115.326 18.148,115.103 18.260,115.103 18.397 C 115.103 18.533,114.879 18.645,114.605 18.645 C 114.332 18.645,114.108 18.757,114.108 18.894 C 114.108 19.030,113.773 19.142,113.362 19.142 C 112.952 19.142,112.617 19.254,112.617 19.391 C 112.617 19.528,112.393 19.640,112.119 19.640 C 111.846 19.640,111.622 19.751,111.622 19.888 C 111.622 20.025,111.398 20.137,111.125 20.137 C 110.851 20.137,110.628 20.249,110.628 20.385 C 110.628 20.522,110.404 20.634,110.131 20.634 C 109.857 20.634,109.633 20.746,109.633 20.883 C 109.633 21.019,109.410 21.131,109.136 21.131 C 108.863 21.131,108.639 21.243,108.639 21.380 C 108.639 21.516,108.415 21.628,108.142 21.628 C 107.868 21.628,107.644 21.740,107.644 21.877 C 107.644 22.014,107.445 22.126,107.202 22.126 C 106.959 22.126,106.599 22.349,106.401 22.623 C 106.204 22.896,105.844 23.120,105.601 23.120 C 105.358 23.120,105.158 23.232,105.158 23.369 C 105.158 23.505,104.935 23.617,104.661 23.617 C 104.388 23.617,104.164 23.729,104.164 23.866 C 104.164 24.002,103.940 24.114,103.667 24.114 C 103.393 24.114,103.170 24.226,103.170 24.363 C 103.170 24.500,102.946 24.612,102.672 24.612 C 102.399 24.612,102.175 24.723,102.175 24.860 C 102.175 24.997,101.976 25.109,101.733 25.109 C 101.490 25.109,101.129 25.333,100.932 25.606 C 100.735 25.879,100.375 26.103,100.132 26.103 C 99.888 26.103,99.689 26.215,99.689 26.352 C 99.689 26.489,99.466 26.600,99.192 26.600 C 98.919 26.600,98.695 26.712,98.695 26.849 C 98.695 26.986,98.496 27.098,98.253 27.098 C 98.009 27.098,97.649 27.321,97.452 27.595 C 97.255 27.868,96.894 28.092,96.651 28.092 C 96.408 28.092,96.209 28.204,96.209 28.341 C 96.209 28.477,96.010 28.589,95.767 28.589 C 95.523 28.589,95.163 28.813,94.966 29.086 C 94.769 29.360,94.433 29.584,94.220 29.584 C 94.007 29.584,93.671 29.807,93.474 30.081 C 93.277 30.354,92.917 30.578,92.674 30.578 C 92.430 30.578,92.231 30.690,92.231 30.827 C 92.231 30.963,92.032 31.075,91.789 31.075 C 91.546 31.075,91.185 31.299,90.988 31.572 C 90.791 31.846,90.455 32.070,90.242 32.070 C 90.029 32.070,89.694 32.293,89.497 32.567 C 89.299 32.840,88.964 33.064,88.751 33.064 C 88.538 33.064,88.202 33.288,88.005 33.561 C 87.808 33.835,87.472 34.058,87.259 34.058 C 87.046 34.058,86.710 34.282,86.513 34.556 C 86.316 34.829,86.001 35.053,85.812 35.053 C 85.624 35.053,85.156 35.388,84.773 35.799 C 84.390 36.209,83.922 36.544,83.734 36.544 C 83.545 36.544,83.230 36.768,83.033 37.042 C 82.836 37.315,82.520 37.539,82.332 37.539 C 82.144 37.539,81.676 37.874,81.293 38.285 C 80.910 38.695,80.462 39.030,80.298 39.030 C 80.135 39.030,79.687 39.366,79.304 39.776 C 78.921 40.186,78.473 40.522,78.310 40.522 C 78.146 40.522,77.698 40.858,77.315 41.268 C 76.932 41.678,76.487 42.014,76.326 42.014 C 76.165 42.014,75.603 42.461,75.078 43.008 C 74.552 43.555,73.993 44.002,73.835 44.002 C 73.677 44.002,73.117 44.450,72.592 44.997 C 72.066 45.544,71.509 45.991,71.354 45.991 C 71.199 45.991,70.414 46.663,69.608 47.483 C 68.803 48.303,68.026 48.975,67.881 48.975 C 67.538 48.975,49.472 67.039,49.472 67.382 C 49.472 67.526,48.689 68.416,47.732 69.360 C 46.774 70.304,45.991 71.202,45.991 71.356 C 45.991 71.510,45.544 72.066,44.997 72.592 C 44.450 73.117,44.002 73.677,44.002 73.835 C 44.002 73.993,43.555 74.552,43.008 75.078 C 42.461 75.603,42.014 76.165,42.014 76.326 C 42.014 76.487,41.678 76.932,41.268 77.315 C 40.858 77.698,40.522 78.146,40.522 78.310 C 40.522 78.473,40.186 78.921,39.776 79.304 C 39.366 79.687,39.030 80.135,39.030 80.298 C 39.030 80.462,38.695 80.910,38.285 81.293 C 37.874 81.676,37.539 82.144,37.539 82.332 C 37.539 82.520,37.315 82.836,37.042 83.033 C 36.768 83.230,36.544 83.545,36.544 83.734 C 36.544 83.922,36.209 84.390,35.799 84.773 C 35.388 85.156,35.053 85.624,35.053 85.812 C 35.053 86.001,34.829 86.316,34.556 86.513 C 34.282 86.710,34.058 87.046,34.058 87.259 C 34.058 87.472,33.835 87.808,33.561 88.005 C 33.288 88.202,33.064 88.538,33.064 88.751 C 33.064 88.964,32.840 89.299,32.567 89.497 C 32.293 89.694,32.070 90.029,32.070 90.242 C 32.070 90.455,31.846 90.791,31.572 90.988 C 31.299 91.185,31.075 91.521,31.075 91.734 C 31.075 91.947,30.851 92.283,30.578 92.480 C 30.305 92.677,30.081 93.037,30.081 93.280 C 30.081 93.524,29.969 93.723,29.832 93.723 C 29.695 93.723,29.584 93.922,29.584 94.165 C 29.584 94.408,29.360 94.769,29.086 94.966 C 28.813 95.163,28.589 95.523,28.589 95.767 C 28.589 96.010,28.477 96.209,28.341 96.209 C 28.204 96.209,28.092 96.408,28.092 96.651 C 28.092 96.894,27.868 97.255,27.595 97.452 C 27.321 97.649,27.098 98.009,27.098 98.253 C 27.098 98.496,26.986 98.695,26.849 98.695 C 26.712 98.695,26.600 98.919,26.600 99.192 C 26.600 99.466,26.489 99.689,26.352 99.689 C 26.215 99.689,26.103 99.888,26.103 100.132 C 26.103 100.375,25.879 100.735,25.606 100.932 C 25.333 101.129,25.109 101.490,25.109 101.733 C 25.109 101.976,24.997 102.175,24.860 102.175 C 24.723 102.175,24.612 102.399,24.612 102.672 C 24.612 102.946,24.500 103.170,24.363 103.170 C 24.226 103.170,24.114 103.393,24.114 103.667 C 24.114 103.940,24.002 104.164,23.866 104.164 C 23.729 104.164,23.617 104.363,23.617 104.606 C 23.617 104.850,23.393 105.210,23.120 105.407 C 22.846 105.604,22.623 105.964,22.623 106.208 C 22.623 106.451,22.511 106.650,22.374 106.650 C 22.237 106.650,22.126 106.874,22.126 107.147 C 22.126 107.421,22.014 107.644,21.877 107.644 C 21.740 107.644,21.628 107.868,21.628 108.142 C 21.628 108.415,21.516 108.639,21.380 108.639 C 21.243 108.639,21.131 108.863,21.131 109.136 C 21.131 109.410,21.019 109.633,20.883 109.633 C 20.746 109.633,20.634 109.857,20.634 110.131 C 20.634 110.404,20.522 110.628,20.385 110.628 C 20.249 110.628,20.137 110.851,20.137 111.125 C 20.137 111.398,20.025 111.622,19.888 111.622 C 19.751 111.622,19.640 111.846,19.640 112.119 C 19.640 112.393,19.528 112.617,19.391 112.617 C 19.254 112.617,19.142 112.840,19.142 113.114 C 19.142 113.387,19.030 113.611,18.894 113.611 C 18.757 113.611,18.645 113.835,18.645 114.108 C 18.645 114.382,18.533 114.605,18.397 114.605 C 18.260 114.605,18.148 114.941,18.148 115.351 C 18.148 115.761,18.036 116.097,17.899 116.097 C 17.763 116.097,17.651 116.321,17.651 116.594 C 17.651 116.868,17.539 117.091,17.402 117.091 C 17.265 117.091,17.154 117.315,17.154 117.589 C 17.154 117.862,17.042 118.086,16.905 118.086 C 16.768 118.086,16.656 118.310,16.656 118.583 C 16.656 118.856,16.544 119.080,16.408 119.080 C 16.271 119.080,16.159 119.416,16.159 119.826 C 16.159 120.236,16.047 120.572,15.911 120.572 C 15.774 120.572,15.662 120.796,15.662 121.069 C 15.662 121.342,15.550 121.566,15.413 121.566 C 15.277 121.566,15.165 121.790,15.165 122.063 C 15.165 122.337,15.053 122.561,14.916 122.561 C 14.779 122.561,14.667 122.896,14.667 123.306 C 14.667 123.717,14.556 124.052,14.419 124.052 C 14.282 124.052,14.170 124.276,14.170 124.549 C 14.170 124.823,14.058 125.047,13.922 125.047 C 13.785 125.047,13.673 125.382,13.673 125.792 C 13.673 126.203,13.561 126.538,13.424 126.538 C 13.288 126.538,13.176 126.762,13.176 127.035 C 13.176 127.309,13.064 127.533,12.927 127.533 C 12.791 127.533,12.679 127.868,12.679 128.278 C 12.679 128.689,12.567 129.024,12.430 129.024 C 12.293 129.024,12.181 129.360,12.181 129.770 C 12.181 130.180,12.070 130.516,11.933 130.516 C 11.796 130.516,11.684 130.851,11.684 131.262 C 11.684 131.672,11.572 132.007,11.436 132.007 C 11.299 132.007,11.187 132.231,11.187 132.505 C 11.187 132.778,11.075 133.002,10.938 133.002 C 10.802 133.002,10.690 133.337,10.690 133.748 C 10.690 134.158,10.578 134.493,10.441 134.493 C 10.305 134.493,10.193 134.829,10.193 135.239 C 10.193 135.649,10.081 135.985,9.944 135.985 C 9.807 135.985,9.695 136.321,9.695 136.731 C 9.695 137.141,9.584 137.477,9.447 137.477 C 9.310 137.477,9.198 137.924,9.198 138.471 C 9.198 139.018,9.086 139.466,8.950 139.466 C 8.813 139.466,8.701 139.801,8.701 140.211 C 8.701 140.622,8.589 140.957,8.452 140.957 C 8.316 140.957,8.204 141.293,8.204 141.703 C 8.204 142.113,8.092 142.449,7.955 142.449 C 7.819 142.449,7.707 142.784,7.707 143.195 C 7.707 143.605,7.595 143.940,7.458 143.940 C 7.321 143.940,7.209 144.388,7.209 144.935 C 7.209 145.482,7.098 145.929,6.961 145.929 C 6.824 145.929,6.712 146.265,6.712 146.675 C 6.712 147.085,6.600 147.421,6.464 147.421 C 6.327 147.421,6.223 147.952,6.233 148.602 C 6.251 149.746,6.270 149.713,6.868 147.545 C 26.180 77.549,80.715 24.031,151.025 6.076 C 155.118 5.030,155.991 4.740,155.065 4.733 C 154.416 4.728,153.884 4.835,153.884 4.972 M250.114 6.312 C 250.171 6.365,251.336 6.709,252.704 7.076 C 298.632 19.401,339.793 49.137,366.499 89.284 C 368.036 91.595,369.340 93.349,369.395 93.182 C 369.451 93.014,369.368 92.835,369.211 92.782 C 369.053 92.730,368.925 92.497,368.925 92.265 C 368.925 92.033,368.701 91.682,368.428 91.485 C 368.154 91.288,367.930 90.953,367.930 90.740 C 367.930 90.526,367.707 90.191,367.433 89.994 C 367.160 89.797,366.936 89.461,366.936 89.248 C 366.936 89.035,366.712 88.699,366.439 88.502 C 366.165 88.305,365.942 87.969,365.942 87.756 C 365.942 87.543,365.718 87.208,365.444 87.011 C 365.171 86.813,364.947 86.478,364.947 86.265 C 364.947 86.052,364.723 85.716,364.450 85.519 C 364.177 85.322,363.953 85.006,363.953 84.818 C 363.953 84.630,363.617 84.162,363.207 83.779 C 362.797 83.396,362.461 82.948,362.461 82.784 C 362.461 82.621,362.126 82.173,361.715 81.790 C 361.305 81.407,360.970 80.939,360.970 80.751 C 360.970 80.562,360.746 80.247,360.472 80.050 C 360.199 79.853,359.975 79.539,359.975 79.354 C 359.975 79.168,359.528 78.586,358.981 78.061 C 358.434 77.535,357.986 76.976,357.986 76.818 C 357.986 76.660,357.539 76.100,356.992 75.575 C 356.445 75.049,355.998 74.490,355.998 74.332 C 355.998 74.174,355.550 73.614,355.003 73.089 C 354.456 72.563,354.009 72.006,354.009 71.849 C 354.009 71.693,353.449 71.020,352.766 70.354 C 352.082 69.688,351.523 69.020,351.523 68.868 C 351.523 68.717,350.628 67.707,349.534 66.625 C 348.440 65.543,347.545 64.540,347.545 64.397 C 347.545 64.055,334.948 51.461,334.605 51.461 C 334.460 51.461,333.683 50.789,332.878 49.969 C 332.072 49.149,331.289 48.477,331.137 48.477 C 330.985 48.477,330.202 47.806,329.397 46.986 C 328.592 46.165,327.806 45.494,327.651 45.494 C 327.496 45.494,326.939 45.047,326.414 44.500 C 325.888 43.953,325.329 43.505,325.171 43.505 C 325.013 43.505,324.453 43.058,323.928 42.511 C 323.402 41.964,322.841 41.516,322.680 41.516 C 322.519 41.516,322.074 41.181,321.690 40.771 C 321.307 40.360,320.860 40.025,320.696 40.025 C 320.532 40.025,320.085 39.689,319.702 39.279 C 319.319 38.869,318.871 38.533,318.707 38.533 C 318.544 38.533,318.096 38.198,317.713 37.787 C 317.330 37.377,316.862 37.042,316.674 37.042 C 316.485 37.042,316.170 36.818,315.973 36.544 C 315.776 36.271,315.440 36.047,315.227 36.047 C 315.014 36.047,314.678 35.823,314.481 35.550 C 314.284 35.277,313.969 35.053,313.780 35.053 C 313.592 35.053,313.124 34.717,312.741 34.307 C 312.358 33.897,311.865 33.561,311.647 33.561 C 311.428 33.561,311.249 33.449,311.249 33.313 C 311.249 33.176,311.050 33.064,310.807 33.064 C 310.564 33.064,310.203 32.840,310.006 32.567 C 309.809 32.293,309.474 32.070,309.260 32.070 C 309.047 32.070,308.712 31.846,308.515 31.572 C 308.318 31.299,307.982 31.075,307.769 31.075 C 307.556 31.075,307.220 30.851,307.023 30.578 C 306.826 30.305,306.535 30.081,306.377 30.081 C 306.219 30.081,305.946 29.907,305.770 29.696 C 305.594 29.484,304.972 29.092,304.387 28.826 C 303.802 28.560,303.259 28.237,303.180 28.109 C 303.101 27.980,302.395 27.564,301.611 27.183 C 300.828 26.802,299.970 26.291,299.705 26.048 C 299.439 25.805,299.076 25.606,298.897 25.606 C 298.717 25.606,298.571 25.494,298.571 25.357 C 298.571 25.221,298.347 25.109,298.073 25.109 C 297.800 25.109,297.576 24.997,297.576 24.860 C 297.576 24.723,297.377 24.612,297.134 24.612 C 296.891 24.612,296.530 24.388,296.333 24.114 C 296.136 23.841,295.776 23.617,295.532 23.617 C 295.289 23.617,295.090 23.505,295.090 23.369 C 295.090 23.232,294.866 23.120,294.593 23.120 C 294.319 23.120,294.096 23.008,294.096 22.871 C 294.096 22.735,293.872 22.623,293.599 22.623 C 293.325 22.623,293.101 22.511,293.101 22.374 C 293.101 22.237,292.878 22.126,292.604 22.126 C 292.331 22.126,292.107 22.014,292.107 21.877 C 292.107 21.740,291.883 21.628,291.610 21.628 C 291.336 21.628,291.112 21.516,291.112 21.380 C 291.112 21.243,290.889 21.131,290.615 21.131 C 290.342 21.131,290.118 21.019,290.118 20.883 C 290.118 20.746,289.894 20.634,289.621 20.634 C 289.347 20.634,289.124 20.522,289.124 20.385 C 289.124 20.249,288.900 20.137,288.626 20.137 C 288.353 20.137,288.129 20.025,288.129 19.888 C 288.129 19.751,287.906 19.640,287.632 19.640 C 287.359 19.640,287.135 19.528,287.135 19.391 C 287.135 19.254,286.911 19.142,286.638 19.142 C 286.364 19.142,286.140 19.030,286.140 18.894 C 286.140 18.757,285.917 18.645,285.643 18.645 C 285.370 18.645,285.146 18.533,285.146 18.397 C 285.146 18.260,284.810 18.148,284.400 18.148 C 283.990 18.148,283.654 18.036,283.654 17.899 C 283.654 17.763,283.431 17.651,283.157 17.651 C 282.884 17.651,282.660 17.539,282.660 17.402 C 282.660 17.265,282.436 17.154,282.163 17.154 C 281.889 17.154,281.666 17.042,281.666 16.905 C 281.666 16.768,281.442 16.656,281.168 16.656 C 280.895 16.656,280.671 16.544,280.671 16.408 C 280.671 16.271,280.336 16.159,279.925 16.159 C 279.515 16.159,279.180 16.047,279.180 15.911 C 279.180 15.774,278.956 15.662,278.682 15.662 C 278.409 15.662,278.185 15.550,278.185 15.413 C 278.185 15.277,277.961 15.165,277.688 15.165 C 277.415 15.165,277.191 15.053,277.191 14.916 C 277.191 14.779,276.855 14.667,276.445 14.667 C 276.035 14.667,275.699 14.556,275.699 14.419 C 275.699 14.282,275.475 14.170,275.202 14.170 C 274.929 14.170,274.705 14.058,274.705 13.922 C 274.705 13.785,274.369 13.673,273.959 13.673 C 273.549 13.673,273.213 13.561,273.213 13.424 C 273.213 13.288,272.989 13.176,272.716 13.176 C 272.443 13.176,272.219 13.064,272.219 12.927 C 272.219 12.791,271.883 12.679,271.473 12.679 C 271.063 12.679,270.727 12.567,270.727 12.430 C 270.727 12.293,270.392 12.181,269.981 12.181 C 269.571 12.181,269.236 12.070,269.236 11.933 C 269.236 11.796,268.900 11.684,268.490 11.684 C 268.080 11.684,267.744 11.572,267.744 11.436 C 267.744 11.299,267.520 11.187,267.247 11.187 C 266.973 11.187,266.750 11.075,266.750 10.938 C 266.750 10.802,266.414 10.690,266.004 10.690 C 265.594 10.690,265.258 10.578,265.258 10.441 C 265.258 10.305,264.922 10.193,264.512 10.193 C 264.102 10.193,263.766 10.081,263.766 9.944 C 263.766 9.807,263.431 9.695,263.021 9.695 C 262.610 9.695,262.275 9.584,262.275 9.447 C 262.275 9.310,261.939 9.198,261.529 9.198 C 261.119 9.198,260.783 9.086,260.783 8.950 C 260.783 8.813,260.336 8.701,259.789 8.701 C 259.242 8.701,258.794 8.589,258.794 8.452 C 258.794 8.316,258.459 8.204,258.048 8.204 C 257.638 8.204,257.303 8.092,257.303 7.955 C 257.303 7.819,256.967 7.707,256.557 7.707 C 256.147 7.707,255.811 7.595,255.811 7.458 C 255.811 7.321,255.364 7.209,254.817 7.209 C 254.270 7.209,253.822 7.098,253.822 6.961 C 253.822 6.824,253.375 6.712,252.828 6.712 C 252.281 6.712,251.833 6.600,251.833 6.464 C 251.833 6.327,251.423 6.215,250.922 6.215 C 250.421 6.215,250.057 6.259,250.114 6.312 M161.062 76.732 C 160.776 77.076,160.710 83.957,160.657 118.994 L 160.592 160.845 118.719 160.845 L 76.846 160.845 76.459 161.398 C 76.113 161.892,76.072 166.005,76.072 200.428 L 76.072 238.905 118.272 238.968 L 160.472 239.030 160.535 281.231 L 160.598 323.431 199.750 323.431 L 238.902 323.431 238.966 281.554 C 239.018 247.592,239.092 239.616,239.354 239.354 C 239.616 239.092,247.592 239.018,281.554 238.966 L 323.431 238.902 323.431 199.874 L 323.431 160.845 281.467 160.845 C 249.160 160.845,239.434 160.777,239.204 160.547 C 238.975 160.317,238.906 150.592,238.906 118.285 L 238.906 76.321 200.155 76.321 C 164.412 76.321,161.377 76.353,161.062 76.732 M369.898 94.531 C 370.186 94.975,371.172 96.610,372.088 98.163 C 373.005 99.716,373.803 100.841,373.863 100.661 C 373.923 100.482,373.843 100.293,373.686 100.240 C 373.528 100.188,373.400 99.931,373.400 99.669 C 373.400 99.406,373.288 99.192,373.151 99.192 C 373.014 99.192,372.902 98.993,372.902 98.750 C 372.902 98.506,372.679 98.146,372.405 97.949 C 372.132 97.752,371.908 97.392,371.908 97.148 C 371.908 96.905,371.796 96.706,371.659 96.706 C 371.523 96.706,371.411 96.507,371.411 96.264 C 371.411 96.020,371.187 95.660,370.914 95.463 C 370.640 95.266,370.416 94.954,370.416 94.769 C 370.416 94.584,370.257 94.273,370.061 94.078 C 369.441 93.457,369.355 93.695,369.898 94.531 M374.924 103.108 C 376.121 105.326,376.383 105.680,376.383 105.084 C 376.383 104.851,376.271 104.661,376.134 104.661 C 375.998 104.661,375.886 104.438,375.886 104.164 C 375.886 103.891,375.774 103.667,375.637 103.667 C 375.500 103.667,375.388 103.443,375.388 103.170 C 375.388 102.896,375.277 102.672,375.140 102.672 C 375.003 102.672,374.891 102.497,374.891 102.282 C 374.891 101.901,374.329 101.181,374.032 101.181 C 373.951 101.181,374.352 102.048,374.924 103.108 M378.314 109.549 C 378.681 110.325,378.756 110.380,378.824 109.922 C 378.868 109.626,378.736 109.216,378.531 109.011 C 377.925 108.406,377.855 108.580,378.314 109.549 M381.693 116.425 C 382.416 118.156,382.825 118.772,382.837 118.148 C 382.842 117.840,382.735 117.589,382.598 117.589 C 382.461 117.589,382.349 117.365,382.349 117.091 C 382.349 116.818,382.237 116.594,382.101 116.594 C 381.964 116.594,381.852 116.370,381.852 116.097 C 381.852 115.823,381.739 115.600,381.600 115.600 C 381.449 115.600,381.486 115.929,381.693 116.425 M383.721 120.994 C 384.205 122.153,384.338 122.285,384.338 121.608 C 384.338 121.311,384.226 121.069,384.089 121.069 C 383.953 121.069,383.841 120.845,383.841 120.572 C 383.841 120.298,383.728 120.075,383.589 120.075 C 383.443 120.075,383.498 120.460,383.721 120.994 M386.828 128.713 C 386.839 129.258,387.314 129.620,387.318 129.086 C 387.320 128.779,387.209 128.527,387.073 128.527 C 386.936 128.527,386.826 128.611,386.828 128.713 M389.001 134.618 C 389.066 134.960,389.162 135.239,389.215 135.239 C 389.267 135.239,389.310 134.960,389.310 134.618 C 389.310 134.276,389.214 133.996,389.096 133.996 C 388.978 133.996,388.935 134.276,389.001 134.618 M389.995 137.601 C 390.060 137.943,390.157 138.222,390.209 138.222 C 390.262 138.222,390.305 137.943,390.305 137.601 C 390.305 137.259,390.208 136.979,390.090 136.979 C 389.973 136.979,389.930 137.259,389.995 137.601 M390.492 139.093 C 390.558 139.434,390.654 139.714,390.706 139.714 C 390.759 139.714,390.802 139.434,390.802 139.093 C 390.802 138.751,390.705 138.471,390.588 138.471 C 390.470 138.471,390.427 138.751,390.492 139.093 M390.819 140.149 C 390.888 140.878,391.265 141.284,391.281 140.646 C 391.291 140.270,391.187 139.963,391.050 139.963 C 390.914 139.963,390.810 140.047,390.819 140.149 M391.984 144.065 C 392.049 144.406,392.146 144.686,392.198 144.686 C 392.250 144.686,392.293 144.406,392.293 144.065 C 392.293 143.723,392.197 143.443,392.079 143.443 C 391.961 143.443,391.919 143.723,391.984 144.065 M392.978 147.545 C 393.044 147.887,393.140 148.167,393.192 148.167 C 393.245 148.167,393.288 147.887,393.288 147.545 C 393.288 147.203,393.191 146.924,393.074 146.924 C 392.956 146.924,392.913 147.203,392.978 147.545 M393.476 149.534 C 393.541 149.876,393.637 150.155,393.690 150.155 C 393.742 150.155,393.785 149.876,393.785 149.534 C 393.785 149.192,393.689 148.912,393.571 148.912 C 393.453 148.912,393.410 149.192,393.476 149.534 M5.718 150.653 C 5.718 151.063,5.606 151.398,5.469 151.398 C 5.333 151.398,5.221 151.846,5.221 152.393 C 5.221 152.940,5.109 153.387,4.972 153.387 C 4.835 153.387,4.723 153.947,4.723 154.630 C 4.723 155.314,4.612 155.873,4.475 155.873 C 4.338 155.873,4.233 156.405,4.242 157.054 C 4.255 158.034,4.399 157.643,5.088 154.755 C 5.545 152.840,5.997 150.966,6.094 150.590 C 6.206 150.150,6.171 149.907,5.993 149.907 C 5.842 149.907,5.718 150.242,5.718 150.653 M393.973 151.523 C 394.038 151.865,394.134 152.144,394.187 152.144 C 394.239 152.144,394.282 151.865,394.282 151.523 C 394.282 151.181,394.186 150.901,394.068 150.901 C 393.950 150.901,393.907 151.181,393.973 151.523 M394.470 153.511 C 394.535 153.853,394.632 154.133,394.684 154.133 C 394.736 154.133,394.779 153.853,394.779 153.511 C 394.779 153.170,394.683 152.890,394.565 152.890 C 394.447 152.890,394.405 153.170,394.470 153.511 M394.975 155.625 C 395.035 156.035,395.128 156.370,395.180 156.370 C 395.233 156.370,395.277 156.035,395.277 155.625 C 395.277 155.214,395.184 154.879,395.071 154.879 C 394.958 154.879,394.915 155.214,394.975 155.625 M3.758 159.540 C 3.785 160.594,3.808 160.641,3.978 159.975 C 4.257 158.876,4.257 158.359,3.978 158.359 C 3.841 158.359,3.742 158.891,3.758 159.540 M3.257 161.902 C 3.278 162.799,3.311 162.865,3.480 162.337 C 3.767 161.442,3.767 160.845,3.480 160.845 C 3.344 160.845,3.243 161.321,3.257 161.902 M2.754 165.009 C 2.776 166.309,2.897 166.204,3.040 164.761 C 3.090 164.248,3.043 163.828,2.933 163.828 C 2.824 163.828,2.743 164.360,2.754 165.009 M2.237 167.557 C 2.237 168.241,2.126 168.800,1.989 168.800 C 1.847 168.800,1.740 169.546,1.740 170.541 C 1.740 171.535,1.634 172.281,1.492 172.281 C 1.344 172.281,1.257 173.066,1.277 174.208 C 1.295 175.267,1.350 175.855,1.399 175.513 C 1.447 175.171,1.612 173.940,1.764 172.778 C 1.916 171.616,2.197 169.786,2.388 168.711 C 2.801 166.380,2.804 166.314,2.486 166.314 C 2.349 166.314,2.237 166.874,2.237 167.557 M0.746 178.993 C 0.746 180.374,0.669 180.733,0.373 180.733 C 0.089 180.733,0.000 181.043,0.000 182.032 C 0.000 183.906,0.655 182.905,0.862 180.716 C 0.944 179.837,1.065 178.698,1.130 178.185 C 1.199 177.644,1.143 177.253,0.997 177.253 C 0.852 177.253,0.746 177.985,0.746 178.993 M399.083 180.609 C 399.084 181.429,399.130 181.735,399.186 181.288 C 399.241 180.841,399.240 180.170,399.183 179.797 C 399.127 179.423,399.081 179.789,399.083 180.609 M399.592 186.451 C 399.592 187.750,399.634 188.282,399.686 187.632 C 399.737 186.983,399.737 185.920,399.686 185.270 C 399.634 184.621,399.592 185.152,399.592 186.451 M399.588 213.176 C 399.589 214.270,399.633 214.686,399.685 214.102 C 399.738 213.517,399.737 212.622,399.684 212.113 C 399.630 211.604,399.587 212.082,399.588 213.176 M0.786 221.690 C 0.761 223.084,0.844 223.990,0.994 223.990 C 1.133 223.990,1.243 224.653,1.243 225.482 C 1.243 226.322,1.353 226.973,1.495 226.973 C 1.646 226.973,1.691 226.555,1.608 225.917 C 1.532 225.336,1.359 224.021,1.225 222.996 C 1.091 221.970,0.946 220.740,0.903 220.261 C 0.860 219.782,0.807 220.426,0.786 221.690 M398.576 223.990 C 398.576 224.605,398.625 224.857,398.684 224.549 C 398.743 224.242,398.743 223.738,398.684 223.431 C 398.625 223.123,398.576 223.375,398.576 223.990 M397.969 227.968 C 397.916 228.515,397.961 228.962,398.067 228.962 C 398.173 228.962,398.260 228.515,398.260 227.968 C 398.260 227.421,398.216 226.973,398.162 226.973 C 398.108 226.973,398.021 227.421,397.969 227.968 M1.763 229.397 C 1.750 230.283,1.847 230.951,1.989 230.951 C 2.131 230.951,2.237 231.697,2.237 232.691 C 2.237 233.686,2.344 234.431,2.486 234.431 C 2.623 234.431,2.735 234.991,2.735 235.674 C 2.735 236.358,2.846 236.917,2.983 236.917 C 3.120 236.917,3.232 237.365,3.232 237.912 C 3.232 238.459,3.333 238.906,3.457 238.906 C 3.581 238.906,3.643 238.710,3.594 238.471 C 3.512 238.066,2.990 235.003,2.142 229.956 L 1.787 227.843 1.763 229.397 M397.484 231.324 C 397.336 232.318,397.389 232.650,397.655 232.385 C 397.732 232.307,397.759 231.813,397.714 231.287 L 397.632 230.329 397.484 231.324 M396.970 234.556 C 396.914 235.034,396.957 235.426,397.067 235.426 C 397.176 235.426,397.265 235.034,397.265 234.556 C 397.265 234.077,397.222 233.686,397.168 233.686 C 397.115 233.686,397.025 234.077,396.970 234.556 M396.467 237.166 C 396.406 237.576,396.450 237.912,396.563 237.912 C 396.676 237.912,396.768 237.576,396.768 237.166 C 396.768 236.756,396.725 236.420,396.672 236.420 C 396.619 236.420,396.527 236.756,396.467 237.166 M395.962 239.776 C 395.896 240.118,395.939 240.398,396.057 240.398 C 396.175 240.398,396.271 240.118,396.271 239.776 C 396.271 239.434,396.228 239.155,396.176 239.155 C 396.123 239.155,396.027 239.434,395.962 239.776 M3.729 240.522 C 3.729 241.001,3.818 241.392,3.928 241.392 C 4.037 241.392,4.081 241.001,4.025 240.522 C 3.969 240.044,3.880 239.652,3.826 239.652 C 3.773 239.652,3.729 240.044,3.729 240.522 M4.242 243.195 C 4.233 243.844,4.338 244.375,4.475 244.375 C 4.612 244.375,4.723 244.823,4.723 245.370 C 4.723 245.917,4.835 246.364,4.972 246.364 C 5.109 246.364,5.221 246.812,5.221 247.359 C 5.221 247.906,5.333 248.353,5.469 248.353 C 5.606 248.353,5.718 248.800,5.718 249.347 C 5.718 249.894,5.830 250.342,5.966 250.342 C 6.103 250.342,6.215 250.789,6.215 251.336 C 6.215 251.883,6.327 252.331,6.464 252.331 C 6.600 252.331,6.712 252.666,6.712 253.076 C 6.712 253.487,6.824 253.822,6.961 253.822 C 7.272 253.822,7.434 254.612,5.731 247.856 C 4.587 243.319,4.254 242.278,4.242 243.195 M393.479 250.580 C 393.307 251.191,393.410 251.546,393.681 251.275 C 393.760 251.195,393.786 250.869,393.738 250.550 L 393.650 249.969 393.479 250.580 M392.481 254.195 C 392.416 254.537,392.459 254.817,392.576 254.817 C 392.694 254.817,392.791 254.537,392.791 254.195 C 392.791 253.853,392.748 253.574,392.695 253.574 C 392.643 253.574,392.546 253.853,392.481 254.195 M7.223 254.879 C 7.215 255.392,7.321 255.811,7.458 255.811 C 7.595 255.811,7.707 256.147,7.707 256.557 C 7.707 256.967,7.819 257.303,7.955 257.303 C 8.290 257.303,8.272 257.165,7.716 255.438 C 7.255 254.006,7.236 253.984,7.223 254.879 M391.987 256.049 C 391.816 256.661,391.918 257.015,392.189 256.744 C 392.269 256.665,392.294 256.338,392.246 256.019 L 392.159 255.438 391.987 256.049 M8.214 258.359 C 8.209 258.872,8.316 259.291,8.452 259.291 C 8.589 259.291,8.701 259.627,8.701 260.037 C 8.701 260.447,8.813 260.783,8.950 260.783 C 9.086 260.783,9.198 261.231,9.198 261.778 C 9.198 262.324,9.310 262.772,9.447 262.772 C 9.584 262.772,9.695 263.108,9.695 263.518 C 9.695 263.928,9.807 264.264,9.944 264.264 C 10.081 264.264,10.193 264.599,10.193 265.009 C 10.193 265.420,10.305 265.755,10.441 265.755 C 10.578 265.755,10.690 265.979,10.690 266.252 C 10.690 266.526,10.802 266.750,10.938 266.750 C 11.075 266.750,11.187 267.085,11.187 267.495 C 11.187 267.906,11.299 268.241,11.436 268.241 C 11.572 268.241,11.684 268.577,11.684 268.987 C 11.684 269.397,11.796 269.733,11.933 269.733 C 12.070 269.733,12.181 270.068,12.181 270.479 C 12.181 270.889,12.293 271.224,12.430 271.224 C 12.567 271.224,12.679 271.448,12.679 271.722 C 12.679 271.995,12.791 272.219,12.927 272.219 C 13.064 272.219,13.176 272.554,13.176 272.965 C 13.176 273.375,13.288 273.710,13.424 273.710 C 13.561 273.710,13.673 273.934,13.673 274.208 C 13.673 274.481,13.785 274.705,13.922 274.705 C 14.058 274.705,14.170 275.040,14.170 275.451 C 14.170 275.861,14.282 276.196,14.419 276.196 C 14.556 276.196,14.667 276.420,14.667 276.694 C 14.667 276.967,14.779 277.191,14.916 277.191 C 15.053 277.191,15.165 277.526,15.165 277.937 C 15.165 278.347,15.277 278.682,15.413 278.682 C 15.550 278.682,15.662 278.906,15.662 279.180 C 15.662 279.453,15.774 279.677,15.911 279.677 C 16.047 279.677,16.159 279.901,16.159 280.174 C 16.159 280.447,16.271 280.671,16.408 280.671 C 16.544 280.671,16.656 281.007,16.656 281.417 C 16.656 281.827,16.768 282.163,16.905 282.163 C 17.042 282.163,17.154 282.387,17.154 282.660 C 17.154 282.933,17.265 283.157,17.402 283.157 C 17.539 283.157,17.651 283.381,17.651 283.654 C 17.651 283.928,17.763 284.152,17.899 284.152 C 18.036 284.152,18.148 284.375,18.148 284.649 C 18.148 284.922,18.260 285.146,18.397 285.146 C 18.533 285.146,18.645 285.370,18.645 285.643 C 18.645 285.917,18.757 286.140,18.894 286.140 C 19.030 286.140,19.142 286.364,19.142 286.638 C 19.142 286.911,19.254 287.135,19.391 287.135 C 19.528 287.135,19.640 287.359,19.640 287.632 C 19.640 287.906,19.751 288.129,19.888 288.129 C 20.025 288.129,20.137 288.440,20.137 288.820 C 20.137 289.226,20.342 289.659,20.634 289.869 C 20.908 290.067,21.131 290.513,21.131 290.864 C 21.131 291.215,21.354 291.661,21.628 291.858 C 21.902 292.055,22.126 292.416,22.126 292.659 C 22.126 292.902,22.237 293.101,22.374 293.101 C 22.511 293.101,22.623 293.325,22.623 293.599 C 22.623 293.872,22.735 294.096,22.871 294.096 C 23.008 294.096,23.120 294.319,23.120 294.593 C 23.120 294.866,23.232 295.090,23.369 295.090 C 23.505 295.090,23.617 295.314,23.617 295.587 C 23.617 295.861,23.729 296.085,23.866 296.085 C 24.002 296.085,24.114 296.308,24.114 296.582 C 24.114 296.855,24.226 297.079,24.363 297.079 C 24.500 297.079,24.612 297.226,24.612 297.405 C 24.612 297.584,24.835 297.971,25.109 298.265 C 25.382 298.558,25.606 298.971,25.606 299.182 C 25.606 299.392,25.718 299.565,25.855 299.565 C 25.991 299.565,26.103 299.789,26.103 300.062 C 26.103 300.336,26.215 300.559,26.352 300.559 C 26.489 300.559,26.600 300.713,26.600 300.902 C 26.600 301.090,26.774 301.388,26.986 301.564 C 27.197 301.740,27.589 302.362,27.855 302.947 C 28.121 303.531,28.452 304.079,28.589 304.164 C 28.727 304.249,29.068 304.821,29.347 305.435 C 29.627 306.048,30.018 306.613,30.217 306.689 C 30.416 306.765,30.578 307.015,30.578 307.243 C 30.578 307.472,30.802 307.820,31.075 308.017 C 31.349 308.215,31.572 308.550,31.572 308.763 C 31.572 308.976,31.796 309.312,32.070 309.509 C 32.343 309.706,32.567 310.042,32.567 310.255 C 32.567 310.468,32.791 310.804,33.064 311.001 C 33.337 311.198,33.561 311.533,33.561 311.746 C 33.561 311.960,33.785 312.295,34.058 312.492 C 34.332 312.689,34.556 313.025,34.556 313.238 C 34.556 313.451,34.779 313.787,35.053 313.984 C 35.326 314.181,35.550 314.517,35.550 314.730 C 35.550 314.943,35.774 315.278,36.047 315.475 C 36.321 315.673,36.544 315.988,36.544 316.176 C 36.544 316.365,36.880 316.832,37.290 317.216 C 37.700 317.599,38.036 318.046,38.036 318.210 C 38.036 318.374,38.372 318.821,38.782 319.204 C 39.192 319.588,39.528 320.035,39.528 320.199 C 39.528 320.363,39.863 320.810,40.273 321.193 C 40.684 321.576,41.019 322.024,41.019 322.188 C 41.019 322.351,41.355 322.799,41.765 323.182 C 42.175 323.565,42.511 324.009,42.511 324.168 C 42.511 324.327,43.070 325.002,43.754 325.668 C 44.438 326.334,44.997 327.007,44.997 327.163 C 44.997 327.319,45.444 327.877,45.991 328.403 C 46.538 328.928,46.986 329.484,46.986 329.638 C 46.986 329.792,47.769 330.691,48.726 331.635 C 49.683 332.578,50.466 333.468,50.466 333.612 C 50.466 333.954,66.046 349.534,66.388 349.534 C 66.532 349.534,67.422 350.317,68.365 351.274 C 69.309 352.231,70.208 353.014,70.362 353.014 C 70.516 353.014,71.072 353.462,71.597 354.009 C 72.123 354.556,72.682 355.003,72.840 355.003 C 72.998 355.003,73.558 355.451,74.083 355.998 C 74.609 356.544,75.168 356.992,75.326 356.992 C 75.484 356.992,76.044 357.439,76.569 357.986 C 77.095 358.533,77.656 358.981,77.817 358.981 C 77.978 358.981,78.424 359.316,78.807 359.727 C 79.190 360.137,79.637 360.472,79.801 360.472 C 79.965 360.472,80.412 360.808,80.796 361.218 C 81.179 361.628,81.646 361.964,81.835 361.964 C 82.023 361.964,82.339 362.188,82.536 362.461 C 82.733 362.735,83.048 362.958,83.237 362.958 C 83.425 362.958,83.893 363.294,84.276 363.704 C 84.659 364.114,85.127 364.450,85.315 364.450 C 85.504 364.450,85.819 364.674,86.016 364.947 C 86.213 365.221,86.549 365.444,86.762 365.444 C 86.975 365.444,87.311 365.668,87.508 365.942 C 87.705 366.215,88.040 366.439,88.254 366.439 C 88.467 366.439,88.802 366.663,88.999 366.936 C 89.196 367.209,89.532 367.433,89.745 367.433 C 89.958 367.433,90.294 367.657,90.491 367.930 C 90.688 368.204,91.039 368.428,91.271 368.428 C 91.503 368.428,91.735 368.556,91.788 368.713 C 91.840 368.871,92.025 368.952,92.199 368.894 C 92.372 368.836,90.577 367.490,88.209 365.902 C 51.694 341.414,24.059 304.997,10.045 262.896 C 8.713 258.895,8.222 257.677,8.214 258.359 M389.999 262.512 C 389.827 263.124,389.930 263.478,390.200 263.208 C 390.280 263.128,390.305 262.802,390.257 262.483 L 390.170 261.902 389.999 262.512 M389.501 264.004 C 389.330 264.616,389.432 264.970,389.703 264.699 C 389.783 264.620,389.808 264.293,389.760 263.974 L 389.673 263.393 389.501 264.004 M387.495 269.582 C 387.393 269.841,387.368 270.111,387.440 270.183 C 387.667 270.409,387.866 270.038,387.771 269.566 C 387.684 269.133,387.671 269.134,387.495 269.582 M385.779 274.050 C 385.547 274.683,385.463 275.202,385.593 275.202 C 385.723 275.202,385.830 274.988,385.830 274.726 C 385.830 274.463,385.953 274.208,386.103 274.158 C 386.253 274.108,386.337 273.804,386.289 273.482 C 386.218 273.003,386.126 273.106,385.779 274.050 M384.785 276.536 C 384.552 277.169,384.468 277.688,384.599 277.688 C 384.729 277.688,384.835 277.474,384.835 277.212 C 384.835 276.949,384.958 276.694,385.108 276.644 C 385.258 276.594,385.342 276.290,385.295 275.968 C 385.224 275.489,385.132 275.592,384.785 276.536 M383.621 279.211 C 383.605 279.297,383.423 279.773,383.216 280.268 C 382.996 280.794,382.944 281.168,383.092 281.168 C 383.230 281.168,383.344 280.954,383.344 280.692 C 383.344 280.430,383.468 280.174,383.621 280.123 C 383.773 280.072,383.842 279.811,383.774 279.543 C 383.706 279.275,383.637 279.126,383.621 279.211 M381.135 284.806 C 380.106 286.909,379.843 287.632,380.109 287.632 C 380.247 287.632,380.360 287.408,380.360 287.135 C 380.360 286.861,380.472 286.638,380.609 286.638 C 380.746 286.638,380.858 286.414,380.858 286.140 C 380.858 285.867,380.970 285.643,381.106 285.643 C 381.243 285.643,381.355 285.429,381.355 285.167 C 381.355 284.905,381.480 284.649,381.632 284.598 C 381.784 284.547,381.868 284.301,381.818 284.051 C 381.755 283.731,381.552 283.955,381.135 284.806 M377.142 292.874 C 376.548 294.025,375.778 295.469,375.430 296.085 C 374.835 297.136,374.829 297.175,375.341 296.730 C 375.641 296.469,375.886 296.106,375.886 295.922 C 375.886 295.738,375.998 295.587,376.134 295.587 C 376.271 295.587,376.383 295.364,376.383 295.090 C 376.383 294.817,376.495 294.593,376.631 294.593 C 376.768 294.593,376.880 294.369,376.880 294.096 C 376.880 293.822,376.992 293.599,377.129 293.599 C 377.265 293.599,377.377 293.375,377.377 293.101 C 377.377 292.828,377.489 292.604,377.626 292.604 C 377.763 292.604,377.874 292.390,377.874 292.128 C 377.874 291.866,378.003 291.608,378.160 291.556 C 378.318 291.503,378.395 291.308,378.333 291.122 C 378.271 290.936,377.735 291.724,377.142 292.874 M373.999 298.629 C 373.081 300.283,372.988 300.514,373.422 300.058 C 373.850 299.608,374.939 297.541,374.813 297.415 C 374.764 297.366,374.397 297.912,373.999 298.629 M371.452 302.968 C 371.050 303.719,371.090 303.899,371.555 303.434 C 371.771 303.218,371.902 302.902,371.845 302.733 C 371.782 302.543,371.631 302.633,371.452 302.968 M370.111 305.157 C 369.428 306.288,369.409 306.574,370.061 305.922 C 370.257 305.727,370.416 305.400,370.416 305.197 C 370.416 304.993,370.545 304.784,370.702 304.732 C 370.860 304.679,370.943 304.501,370.888 304.336 C 370.833 304.171,370.483 304.540,370.111 305.157 M368.966 306.945 C 368.564 307.697,368.604 307.877,369.069 307.411 C 369.285 307.195,369.416 306.880,369.359 306.711 C 369.296 306.521,369.145 306.611,368.966 306.945 M367.992 308.509 C 367.565 309.192,367.603 309.374,368.075 308.903 C 368.291 308.687,368.430 308.398,368.385 308.261 C 368.339 308.124,368.162 308.236,367.992 308.509 M366.997 310.000 C 366.571 310.684,366.609 310.866,367.080 310.395 C 367.296 310.179,367.436 309.890,367.390 309.753 C 367.345 309.616,367.168 309.727,366.997 310.000 M366.003 311.492 C 365.576 312.175,365.615 312.358,366.086 311.886 C 366.302 311.670,366.441 311.381,366.396 311.245 C 366.350 311.108,366.173 311.219,366.003 311.492 M365.009 312.984 C 364.582 313.667,364.620 313.849,365.091 313.378 C 365.308 313.162,365.447 312.873,365.401 312.736 C 365.356 312.599,365.179 312.711,365.009 312.984 M363.874 314.571 C 363.401 315.292,363.528 315.439,364.115 314.852 C 364.321 314.645,364.448 314.350,364.396 314.196 C 364.345 314.042,364.110 314.211,363.874 314.571 M362.767 316.197 C 362.026 317.200,362.065 317.386,362.852 316.598 C 363.204 316.246,363.454 315.843,363.407 315.703 C 363.360 315.562,363.072 315.784,362.767 316.197 M361.393 318.109 C 360.897 318.774,361.046 318.915,361.629 318.332 C 361.835 318.126,361.967 317.857,361.922 317.734 C 361.877 317.611,361.639 317.780,361.393 318.109 M360.139 319.796 C 359.762 320.291,359.519 320.696,359.601 320.696 C 359.910 320.696,361.002 319.427,360.916 319.168 C 360.866 319.018,360.517 319.301,360.139 319.796 M358.540 321.906 C 357.480 323.225,357.521 323.416,358.625 322.311 C 359.114 321.823,359.475 321.307,359.427 321.166 C 359.380 321.024,358.981 321.358,358.540 321.906 M355.436 325.804 C 354.374 327.096,353.566 328.154,353.640 328.154 C 353.899 328.154,355.998 325.926,355.998 325.650 C 355.998 325.496,356.343 325.048,356.765 324.653 C 357.188 324.259,357.495 323.827,357.449 323.695 C 357.403 323.562,356.497 324.511,355.436 325.804 M351.694 330.276 C 351.036 331.023,350.563 331.635,350.644 331.635 C 350.932 331.635,353.047 329.371,352.969 329.146 C 352.926 329.020,352.352 329.528,351.694 330.276 M347.709 334.771 C 346.500 336.054,345.578 337.104,345.661 337.104 C 345.943 337.104,350.064 332.853,349.985 332.645 C 349.942 332.531,348.918 333.487,347.709 334.771 M341.332 341.452 C 339.078 343.709,337.373 345.556,337.544 345.556 C 337.952 345.556,345.612 337.891,345.509 337.585 C 345.466 337.455,343.586 339.195,341.332 341.452 M333.872 348.565 C 332.710 349.643,331.900 350.525,332.074 350.526 C 332.387 350.528,336.231 346.832,336.070 346.684 C 336.023 346.641,335.034 347.488,333.872 348.565 M329.900 352.047 C 329.014 352.853,328.429 353.511,328.600 353.511 C 328.913 353.511,331.755 350.809,331.596 350.662 C 331.549 350.618,330.785 351.242,329.900 352.047 M326.538 354.883 C 325.855 355.490,325.438 355.990,325.613 355.992 C 325.787 355.995,326.433 355.494,327.049 354.879 C 328.484 353.444,328.156 353.447,326.538 354.883 M324.186 356.768 C 323.713 357.164,323.466 357.489,323.638 357.489 C 323.961 357.489,325.292 356.282,325.135 356.131 C 325.086 356.084,324.659 356.371,324.186 356.768 M321.815 358.613 C 321.268 359.085,320.964 359.472,321.139 359.474 C 321.315 359.476,321.850 359.086,322.329 358.608 C 323.444 357.493,323.111 357.497,321.815 358.613 M319.700 360.236 C 319.222 360.632,318.976 360.959,319.154 360.963 C 319.485 360.970,320.820 359.767,320.659 359.606 C 320.609 359.557,320.178 359.840,319.700 360.236 M317.711 361.728 C 317.234 362.124,316.988 362.451,317.165 362.454 C 317.497 362.461,318.831 361.259,318.670 361.098 C 318.620 361.048,318.189 361.332,317.711 361.728 M315.969 362.970 C 315.629 363.231,315.499 363.447,315.680 363.450 C 316.026 363.456,316.845 362.754,316.682 362.591 C 316.630 362.538,316.309 362.709,315.969 362.970 M314.516 363.974 C 314.193 364.236,314.061 364.450,314.223 364.450 C 314.541 364.450,315.344 363.738,315.194 363.589 C 315.144 363.539,314.838 363.712,314.516 363.974 M312.880 365.079 C 312.609 365.284,312.535 365.444,312.711 365.444 C 312.884 365.444,313.193 365.277,313.398 365.071 C 313.874 364.595,313.513 364.600,312.880 365.079 M311.388 366.074 C 311.117 366.279,311.043 366.439,311.219 366.439 C 311.392 366.439,311.701 366.271,311.906 366.066 C 312.383 365.589,312.021 365.595,311.388 366.074 M309.141 367.571 C 308.416 368.072,308.081 368.428,308.333 368.428 C 308.570 368.428,308.763 368.316,308.763 368.179 C 308.763 368.042,308.936 367.930,309.147 367.930 C 309.359 367.930,309.811 367.651,310.153 367.309 C 311.012 366.450,310.612 366.554,309.141 367.571 M306.913 369.057 C 306.642 369.262,306.568 369.422,306.745 369.422 C 306.917 369.422,307.226 369.254,307.431 369.049 C 307.908 368.573,307.547 368.578,306.913 369.057 M92.728 369.038 C 92.728 369.333,93.424 369.919,93.774 369.919 C 93.959 369.919,94.272 370.143,94.469 370.416 C 94.666 370.690,95.026 370.914,95.269 370.914 C 95.513 370.914,95.712 371.025,95.712 371.162 C 95.712 371.299,95.911 371.411,96.154 371.411 C 96.397 371.411,96.758 371.635,96.955 371.908 C 97.152 372.181,97.512 372.405,97.755 372.405 C 97.999 372.405,98.198 372.517,98.198 372.654 C 98.198 372.791,98.397 372.902,98.640 372.902 C 98.883 372.902,99.244 373.126,99.441 373.400 C 99.638 373.673,99.998 373.897,100.241 373.897 C 100.485 373.897,100.684 374.009,100.684 374.145 C 100.684 374.282,100.907 374.394,101.181 374.394 C 101.454 374.394,101.678 374.506,101.678 374.643 C 101.678 374.779,101.892 374.891,102.155 374.891 C 102.417 374.891,102.674 375.020,102.726 375.177 C 102.779 375.334,102.967 375.414,103.146 375.355 C 103.324 375.296,102.871 374.923,102.139 374.527 C 100.799 373.803,94.683 370.151,93.412 369.316 C 93.036 369.070,92.728 368.944,92.728 369.038 M305.528 369.931 C 305.188 370.192,305.058 370.408,305.238 370.411 C 305.585 370.417,306.404 369.715,306.241 369.551 C 306.188 369.499,305.867 369.670,305.528 369.931 M302.906 371.527 C 302.604 371.756,302.546 371.895,302.752 371.900 C 302.933 371.904,303.249 371.740,303.454 371.535 C 303.933 371.056,303.537 371.050,302.906 371.527 M299.614 373.433 C 298.889 373.856,298.338 374.244,298.389 374.295 C 298.518 374.424,301.020 373.162,301.194 372.881 C 301.442 372.479,300.963 372.647,299.614 373.433 M295.378 375.836 C 293.965 376.607,292.954 377.287,293.129 377.345 C 293.305 377.404,293.492 377.323,293.545 377.166 C 293.597 377.009,293.854 376.880,294.116 376.880 C 294.378 376.880,294.593 376.768,294.593 376.631 C 294.593 376.495,294.817 376.383,295.090 376.383 C 295.364 376.383,295.587 376.271,295.587 376.134 C 295.587 375.998,295.811 375.886,296.085 375.886 C 296.358 375.886,296.582 375.774,296.582 375.637 C 296.582 375.500,296.722 375.385,296.892 375.381 C 297.267 375.371,298.206 374.692,298.054 374.540 C 297.995 374.481,296.791 375.064,295.378 375.836 M103.667 375.570 C 103.667 375.829,104.417 376.383,104.768 376.383 C 104.983 376.383,105.158 376.495,105.158 376.631 C 105.158 376.768,105.382 376.880,105.656 376.880 C 105.929 376.880,106.153 376.992,106.153 377.129 C 106.153 377.265,106.377 377.377,106.650 377.377 C 106.924 377.377,107.147 377.489,107.147 377.626 C 107.147 377.763,107.371 377.874,107.644 377.874 C 107.918 377.874,108.142 377.986,108.142 378.123 C 108.142 378.260,108.365 378.372,108.639 378.372 C 108.912 378.372,109.136 378.484,109.136 378.620 C 109.136 378.757,109.360 378.869,109.633 378.869 C 109.907 378.869,110.131 378.981,110.131 379.117 C 110.131 379.254,110.354 379.366,110.628 379.366 C 110.901 379.366,111.125 379.478,111.125 379.615 C 111.125 379.751,111.349 379.863,111.622 379.863 C 111.896 379.863,112.119 379.975,112.119 380.112 C 112.119 380.249,112.343 380.360,112.617 380.360 C 112.890 380.360,113.114 380.472,113.114 380.609 C 113.114 380.746,113.337 380.858,113.611 380.858 C 113.884 380.858,114.108 380.970,114.108 381.106 C 114.108 381.243,114.323 381.355,114.585 381.355 C 114.847 381.355,115.102 381.478,115.152 381.628 C 115.202 381.778,115.463 381.862,115.732 381.814 C 116.032 381.761,113.797 380.519,109.944 378.598 C 106.492 376.876,103.667 375.514,103.667 375.570 M283.453 381.798 C 281.923 382.482,281.534 382.745,281.953 382.809 C 282.265 382.856,282.560 382.772,282.610 382.622 C 282.661 382.472,282.916 382.349,283.178 382.349 C 283.440 382.349,283.654 382.237,283.654 382.101 C 283.654 381.964,283.878 381.852,284.152 381.852 C 284.425 381.852,284.649 381.740,284.649 381.603 C 284.649 381.467,284.873 381.355,285.146 381.355 C 285.420 381.355,285.643 381.243,285.643 381.106 C 285.643 380.791,285.848 380.726,283.453 381.798 M118.583 383.095 C 118.583 383.232,118.807 383.344,119.080 383.344 C 119.354 383.344,119.577 383.456,119.577 383.592 C 119.577 383.729,119.829 383.836,120.137 383.830 C 120.614 383.822,120.569 383.750,119.826 383.344 C 118.826 382.796,118.583 382.747,118.583 383.095 M279.055 383.827 C 278.268 384.200,278.177 384.302,278.620 384.318 C 278.928 384.329,279.180 384.226,279.180 384.089 C 279.180 383.953,279.403 383.841,279.677 383.841 C 279.950 383.841,280.174 383.729,280.174 383.592 C 280.174 383.281,280.237 383.268,279.055 383.827 M122.063 384.599 C 122.063 384.729,122.278 384.835,122.540 384.835 C 122.802 384.835,123.057 384.958,123.107 385.108 C 123.157 385.258,123.462 385.342,123.783 385.295 C 124.262 385.224,124.159 385.132,123.216 384.785 C 122.582 384.552,122.063 384.468,122.063 384.599 M275.948 385.084 C 275.646 385.279,275.682 385.326,276.134 385.329 C 276.442 385.331,276.694 385.221,276.694 385.084 C 276.694 384.772,276.430 384.772,275.948 385.084 M124.549 385.593 C 124.549 385.723,124.764 385.830,125.026 385.830 C 125.288 385.830,125.543 385.953,125.593 386.103 C 125.643 386.253,125.948 386.337,126.269 386.289 C 126.748 386.218,126.645 386.126,125.702 385.779 C 125.068 385.547,124.549 385.463,124.549 385.593 M273.462 386.078 C 273.160 386.273,273.196 386.320,273.648 386.323 C 273.956 386.325,274.208 386.215,274.208 386.078 C 274.208 385.767,273.944 385.767,273.462 386.078 M270.976 387.073 C 270.674 387.268,270.710 387.314,271.162 387.318 C 271.470 387.320,271.722 387.209,271.722 387.073 C 271.722 386.761,271.458 386.761,270.976 387.073 M129.521 387.570 C 129.521 387.707,129.773 387.817,130.081 387.815 C 130.533 387.812,130.569 387.765,130.267 387.570 C 129.785 387.258,129.521 387.258,129.521 387.570 M266.874 388.564 C 266.433 388.754,266.454 388.780,267.060 388.795 C 267.436 388.805,267.744 388.701,267.744 388.564 C 267.744 388.273,267.553 388.273,266.874 388.564 M265.382 389.062 C 264.942 389.251,264.963 389.277,265.569 389.293 C 265.945 389.302,266.252 389.198,266.252 389.062 C 266.252 388.770,266.061 388.770,265.382 389.062 M263.891 389.559 C 263.450 389.748,263.471 389.774,264.077 389.790 C 264.453 389.799,264.761 389.695,264.761 389.559 C 264.761 389.267,264.570 389.267,263.891 389.559 M136.482 390.056 C 136.482 390.193,136.790 390.297,137.166 390.287 C 137.772 390.272,137.793 390.245,137.352 390.056 C 136.673 389.764,136.482 389.764,136.482 390.056 M262.523 390.056 L 261.902 390.255 262.585 390.280 C 262.961 390.293,263.269 390.193,263.269 390.056 C 263.269 389.919,263.241 389.818,263.207 389.832 C 263.173 389.846,262.865 389.946,262.523 390.056 M260.907 390.553 C 260.467 390.742,260.488 390.769,261.094 390.784 C 261.470 390.794,261.778 390.690,261.778 390.553 C 261.778 390.261,261.586 390.261,260.907 390.553 M259.416 391.050 C 258.975 391.240,258.996 391.266,259.602 391.281 C 259.978 391.291,260.286 391.187,260.286 391.050 C 260.286 390.759,260.095 390.759,259.416 391.050 M254.319 392.542 C 253.731 392.731,253.740 392.742,254.506 392.766 C 254.950 392.779,255.314 392.679,255.314 392.542 C 255.314 392.261,255.197 392.261,254.319 392.542 M252.579 393.039 L 251.958 393.238 252.641 393.263 C 253.017 393.277,253.325 393.176,253.325 393.039 C 253.325 392.902,253.297 392.802,253.263 392.815 C 253.229 392.829,252.921 392.930,252.579 393.039 M148.415 393.571 C 148.415 393.689,148.695 393.785,149.037 393.785 C 149.378 393.785,149.658 393.742,149.658 393.690 C 149.658 393.637,149.378 393.541,149.037 393.476 C 148.695 393.410,148.415 393.453,148.415 393.571 M250.590 393.536 L 249.969 393.735 250.653 393.760 C 251.029 393.774,251.336 393.673,251.336 393.536 C 251.336 393.400,251.308 393.299,251.274 393.313 C 251.240 393.326,250.932 393.427,250.590 393.536 M150.404 394.068 C 150.404 394.186,150.684 394.282,151.025 394.282 C 151.367 394.282,151.647 394.239,151.647 394.187 C 151.647 394.134,151.367 394.038,151.025 393.973 C 150.684 393.907,150.404 393.950,150.404 394.068 M152.393 394.565 C 152.393 394.683,152.672 394.779,153.014 394.779 C 153.356 394.779,153.636 394.736,153.636 394.684 C 153.636 394.632,153.356 394.535,153.014 394.470 C 152.672 394.405,152.393 394.447,152.393 394.565 M156.868 395.560 C 156.868 395.677,157.147 395.774,157.489 395.774 C 157.831 395.774,158.111 395.731,158.111 395.678 C 158.111 395.626,157.831 395.530,157.489 395.464 C 157.147 395.399,156.868 395.442,156.868 395.560 M158.856 396.029 C 158.856 396.162,159.267 396.271,159.768 396.271 C 160.833 396.271,160.797 396.156,159.664 395.940 C 159.200 395.852,158.856 395.889,158.856 396.029 M234.245 397.188 C 234.484 397.251,234.876 397.251,235.115 397.188 C 235.354 397.126,235.158 397.074,234.680 397.074 C 234.201 397.074,234.006 397.126,234.245 397.188 M231.262 397.685 C 231.501 397.748,231.892 397.748,232.132 397.685 C 232.371 397.623,232.175 397.572,231.697 397.572 C 231.218 397.572,231.022 397.623,231.262 397.685 M170.292 398.067 C 170.292 398.173,170.740 398.260,171.287 398.260 C 171.833 398.260,172.281 398.216,172.281 398.162 C 172.281 398.108,171.833 398.021,171.287 397.969 C 170.740 397.916,170.292 397.961,170.292 398.067 M224.736 398.508 L 223.617 398.682 224.798 398.720 C 225.447 398.740,225.979 398.645,225.979 398.508 C 225.979 398.372,225.951 398.277,225.917 398.297 C 225.883 398.318,225.351 398.413,224.736 398.508 M174.705 398.684 C 175.012 398.743,175.516 398.743,175.823 398.684 C 176.131 398.625,175.879 398.576,175.264 398.576 C 174.649 398.576,174.397 398.625,174.705 398.684 M179.307 399.184 C 179.685 399.241,180.245 399.240,180.550 399.181 C 180.856 399.122,180.547 399.075,179.863 399.077 C 179.180 399.079,178.929 399.127,179.307 399.184 M219.453 399.181 C 219.761 399.240,220.264 399.240,220.572 399.181 C 220.879 399.122,220.628 399.073,220.012 399.073 C 219.397 399.073,219.145 399.122,219.453 399.181 M185.270 399.681 C 185.646 399.738,186.262 399.738,186.638 399.681 C 187.014 399.624,186.706 399.577,185.954 399.577 C 185.202 399.577,184.894 399.624,185.270 399.681 M213.481 399.682 C 213.922 399.737,214.706 399.738,215.221 399.684 C 215.737 399.630,215.376 399.585,214.419 399.584 C 213.462 399.583,213.040 399.627,213.481 399.682 M190.615 399.927 C 190.923 399.986,191.426 399.986,191.734 399.927 C 192.042 399.868,191.790 399.819,191.175 399.819 C 190.559 399.819,190.308 399.868,190.615 399.927 " stroke="none" fill="#fbfbfb" fill-rule="evenodd"></path><path id="path1" d="M183.983 0.352 C 183.793 0.581,182.936 0.755,181.529 0.851 C 175.882 1.237,164.656 2.974,157.116 4.627 C 72.434 23.198,9.223 94.435,0.866 180.716 C 0.781 181.596,0.551 182.543,0.355 182.823 C -0.194 183.606,-0.176 218.024,0.373 218.024 C 0.578 218.024,0.753 218.219,0.761 218.459 C 0.770 218.698,0.873 219.789,0.991 220.883 C 3.630 245.430,10.234 267.895,21.308 289.994 C 48.617 344.487,102.396 385.433,160.763 396.168 C 161.970 396.390,163.518 396.678,164.201 396.807 C 168.294 397.580,175.942 398.636,180.112 399.003 C 181.889 399.159,184.406 399.397,185.705 399.532 C 193.082 400.297,211.341 400.019,220.137 399.009 C 221.231 398.883,223.244 398.658,224.612 398.507 C 225.979 398.357,227.713 398.131,228.465 398.005 C 229.217 397.880,231.287 397.546,233.064 397.264 C 235.857 396.820,242.935 395.411,245.618 394.765 C 246.097 394.649,246.992 394.445,247.607 394.311 C 264.244 390.688,285.874 381.747,303.168 371.347 C 349.700 343.363,384.703 294.683,395.269 243.257 C 396.506 237.239,397.134 233.758,397.766 229.432 C 400.322 211.930,400.620 190.783,398.515 176.259 C 398.386 175.370,398.150 173.636,397.990 172.405 C 397.830 171.175,397.422 168.546,397.084 166.563 C 396.515 163.224,396.313 162.130,395.778 159.478 C 395.668 158.931,395.445 157.812,395.284 156.992 C 391.002 135.208,379.849 109.141,365.979 88.502 C 334.426 41.549,282.736 9.139,227.968 1.968 C 223.794 1.422,220.264 1.024,218.148 0.863 C 216.917 0.769,215.608 0.537,215.239 0.346 C 214.232 -0.173,184.414 -0.168,183.983 0.352 M238.906 118.285 C 238.906 150.592,238.975 160.317,239.204 160.547 C 239.434 160.777,249.160 160.845,281.467 160.845 L 323.431 160.845 323.431 199.874 L 323.431 238.902 281.554 238.966 C 247.592 239.018,239.616 239.092,239.354 239.354 C 239.092 239.616,239.018 247.592,238.966 281.554 L 238.902 323.431 199.750 323.431 L 160.598 323.431 160.535 281.231 L 160.472 239.030 118.272 238.968 L 76.072 238.905 76.072 200.428 C 76.072 166.005,76.113 161.892,76.459 161.398 L 76.846 160.845 118.719 160.845 L 160.592 160.845 160.657 118.994 C 160.710 83.957,160.776 77.076,161.062 76.732 C 161.377 76.353,164.412 76.321,200.155 76.321 L 238.906 76.321 238.906 118.285 " stroke="none" fill="#3b83f3" fill-rule="evenodd"></path></g></svg>